<svg viewBox="0 0 1024 1024" version="1.1" xmlns="http://www.w3.org/2000/svg" p-id="21250" width="12" height="12"><path d="M926.335743 1023.944351h-829.172328A97.052117 97.052117 0 0 1 0 926.947883v-829.172327A97.719907 97.719907 0 0 1 97.052117 0h829.172327A97.719907 97.719907 0 0 1 1023.944351 97.719907v829.172327a97.719907 97.719907 0 0 1-97.608608 97.052117zM97.163415 65.053856a31.942612 31.942612 0 0 0-31.942612 32.554752v829.172328a31.942612 31.942612 0 0 0 31.942612 31.942612h829.172328a32.554752 32.554752 0 0 0 32.554752-31.942612v-829.172328a32.554752 32.554752 0 0 0-32.554752-32.554752z" p-id="21251" fill="#707070"></path><path d="M978.924189 250.810717H44.018477a32.554752 32.554752 0 1 1 0-65.165154h934.905712a32.554752 32.554752 0 1 1 0 65.165154zM440.35172 892.389761h-9.126461a32.554752 32.554752 0 0 1-22.259659-40.401282l148.52758-513.307755a33.834683 33.834683 0 1 1 65.165154 18.252921l-151.14309 511.972175a33.38949 33.38949 0 0 1-31.163524 23.483941z m-132.222379-89.038639a32.554752 32.554752 0 0 1-20.200641-6.51095l-190.208793-145.24428a31.942612 31.942612 0 0 1-12.354112-25.431662 32.554752 32.554752 0 0 1 11.741971-26.043802l190.208793-153.7586a33.38949 33.38949 0 0 1 46.244443 5.23102 32.554752 32.554752 0 0 1-5.23102 45.576654l-157.65404 127.659149 156.98625 119.868268a32.554752 32.554752 0 0 1 5.843161 45.576653 30.607032 30.607032 0 0 1-25.376012 13.07755z m407.796967 0a32.554752 32.554752 0 0 1-20.200641-58.654203l156.986251-119.868268-157.598392-126.490517a33.38949 33.38949 0 0 1 41.013424-52.087604l190.208793 152.42302a30.607032 30.607032 0 0 1 11.74197 26.043802 31.942612 31.942612 0 0 1-12.354111 25.431662l-190.208793 145.24428a31.942612 31.942612 0 0 1-19.532851 7.790881z" p-id="21252" fill="#707070"></path></svg>