<svg viewBox="0 0 1024 1024" version="1.1" xmlns="http://www.w3.org/2000/svg" p-id="13635" width="12" height="12"><path d="M384.31 162.15c8.82 0 16 7.18 16 16v224c0 8.82-7.18 16-16 16h-224c-8.82 0-16-7.18-16-16v-224c0-8.82 7.18-16 16-16h224m0-64h-224c-44.18 0-80 35.82-80 80v224c0 44.18 35.82 80 80 80h224c44.18 0 80-35.82 80-80v-224c0-44.18-35.82-80-80-80zM383.79 607.69c8.82 0 16 7.18 16 16v224c0 8.82-7.18 16-16 16h-224c-8.82 0-16-7.18-16-16v-224c0-8.82 7.18-16 16-16h224m0-64h-224c-44.18 0-80 35.82-80 80v224c0 44.18 35.82 80 80 80h224c44.18 0 80-35.82 80-80v-224c0-44.18-35.82-80-80-80zM860.1 608c8.82 0 16 7.18 16 16v224c0 8.82-7.18 16-16 16h-224c-8.82 0-16-7.18-16-16V624c0-8.82 7.18-16 16-16h224m0-64h-224c-44.18 0-80 35.82-80 80v224c0 44.18 35.82 80 80 80h224c44.18 0 80-35.82 80-80V624c0-44.18-35.82-80-80-80zM912.21 113H585.22c-17.67 0-32 14.33-32 32s14.33 32 32 32h326.99c17.67 0 32-14.33 32-32s-14.32-32-32-32zM912.21 404H585.22c-17.67 0-32 14.33-32 32s14.33 32 32 32h326.99c17.67 0 32-14.33 32-32s-14.32-32-32-32zM910.18 258.5H583.19c-17.67 0-32 14.33-32 32s14.33 32 32 32h326.99c17.67 0 32-14.33 32-32s-14.32-32-32-32z" p-id="13636" fill="#707070"></path><path d="M717 822.41c-12.14 0-24.3-4.19-34.02-12.6l-0.85-0.73-41.6-41.39c-12.53-12.46-12.58-32.73-0.12-45.25 12.46-12.53 32.73-12.58 45.25-0.12l31.88 31.72 90.49-79.12c13.3-11.63 33.52-10.28 45.15 3.03 11.63 13.3 10.28 33.52-3.03 45.15l-98.91 86.48c-9.7 8.54-21.96 12.83-34.24 12.83z m-7.89-61c-0.02 0.02-0.04 0.03-0.05 0.05l0.05-0.05z" p-id="13637" fill="#707070"></path></svg>