<svg viewBox="0 0 1024 1024" version="1.1" xmlns="http://www.w3.org/2000/svg" p-id="11463" width="12" height="12"><path d="M1003.1 396.4H637.2c-5.3 0-9.6 4.3-9.6 9.6v134.8c0 5.3 4.3 9.6 9.6 9.6H695c5.3 0 9.6-4.3 9.6-9.6v-67.4h72.2v385.2h-55.4c-5.3 0-9.6 4.3-9.6 9.6V926c0 5.3 4.3 9.6 9.6 9.6h197.4c5.3 0 9.6-4.3 9.6-9.6v-57.8c0-5.3-4.3-9.6-9.6-9.6h-55.4V473.5h72.2v67.4c0 5.3 4.3 9.6 9.6 9.6h57.8c5.3 0 9.6-4.3 9.6-9.6V406.1c0.2-5.3-4.2-9.7-9.5-9.7z" fill="#707070" p-id="11464"></path><path d="M685.3 252V97.9c0-5.3-4.3-9.6-9.6-9.6H20.9c-5.3 0-9.6 4.3-9.6 9.6V252c0 5.3 4.3 9.6 9.6 9.6h67.4c5.3 0 9.6-4.3 9.6-9.6v-77h202.2v674H189.4c-5.3 0-9.6 4.3-9.6 9.6V926c0 5.3 4.3 9.6 9.6 9.6h317.8c5.3 0 9.6-4.3 9.6-9.6v-67.4c0-5.3-4.3-9.6-9.6-9.6H396.4V175h202.2v77c0 5.3 4.3 9.6 9.6 9.6h67.4c5.4 0 9.7-4.3 9.7-9.6z" fill="#707070" p-id="11465"></path></svg>