<svg viewBox="0 0 1024 1024" version="1.1" xmlns="http://www.w3.org/2000/svg" p-id="15820" width="12" height="12"><path d="M853.333333 195.047619a73.142857 73.142857 0 0 1 73.142857 73.142857v487.619048a73.142857 73.142857 0 0 1-73.142857 73.142857H170.666667a73.142857 73.142857 0 0 1-73.142857-73.142857V268.190476a73.142857 73.142857 0 0 1 73.142857-73.142857h682.666666z m0 73.142857H170.666667v487.619048h682.666666V268.190476z m-414.086095 84.406857a48.761905 48.761905 0 0 1 24.185905 6.412191l194.291809 111.030857a48.761905 48.761905 0 0 1 0 84.675048l-194.31619 111.006476a48.761905 48.761905 0 0 1-72.923429-42.325334v-222.037333a48.761905 48.761905 0 0 1 48.761905-48.761905z m24.380952 90.745905v138.020572l120.758858-68.998096-120.734477-68.998095z" p-id="15821" fill="#707070"></path></svg>